<svg xmlns="http://www.w3.org/2000/svg" viewBox="0 0 512 512" width="512" height="512">
  <defs>
    <linearGradient id="bg" x1="0" y1="0" x2="1" y2="1">
      <stop offset="0" stop-color="#EDB067"/>
      <stop offset="1" stop-color="#B96E2C"/>
    </linearGradient>
  </defs>
  <rect x="0" y="0" width="512" height="512" rx="115" fill="url(#bg)"/>
  <path fill="#FBF7F0" d="M150 128h212a46 46 0 0 1 46 46v104a46 46 0 0 1-46 46H236l-58 62a10 10 0 0 1-17-7v-55h-11a46 46 0 0 1-46-46V174a46 46 0 0 1 46-46z"/>
  <g fill="#9A5A22">
    <circle cx="196" cy="226" r="24"/>
    <circle cx="256" cy="226" r="24"/>
    <circle cx="316" cy="226" r="24"/>
  </g>
</svg>
